# xmcd
#
# Track frame offsets: 
#        150
#        44417
#        95377
#        123667
#        143373
#        164268
#        198764
#
# Disc length: 2924 seconds
#
# Revision: 4
# Processed by: cddbd v1.5.2PL0 Copyright (c) Steve Scherf et al.
# Submitted via: ExactAudioCopy v0.99pb4
#
DISCID=550b6a07
DTITLE=Michel Jonasz - La fabuleuse histoire de Mister Swing CD 2
DYEAR=1996
DGENRE=Pop
TTITLE0=Ne garde rien
TTITLE1=Le temps passe
TTITLE2=Une prière
TTITLE3=Si si si le ciel
TTITLE4=A chaque saison qui passe
TTITLE5=La fabuleuse histoire de Mister Swing
TTITLE6=Om les hommes
EXTD=YEAR: 1996 ID3G:   0
EXTT0=
EXTT1=
EXTT2=
EXTT3=
EXTT4=
EXTT5=
EXTT6=
PLAYORDER=
